<?xml version="1.0" encoding="utf-8"?>
<!-- Generator: Adobe Illustrator 15.0.2, SVG Export Plug-In . SVG Version: 6.00 Build 0)  -->
<!DOCTYPE svg PUBLIC "-//W3C//DTD SVG 1.1//EN" "http://www.w3.org/Graphics/SVG/1.1/DTD/svg11.dtd">
<svg version="1.1" id="Layer_1" xmlns="http://www.w3.org/2000/svg" xmlns:xlink="http://www.w3.org/1999/xlink" x="0px" y="0px"
	 width="296px" height="56px" viewBox="12 2 296 56" enable-background="new 12 2 296 56" xml:space="preserve">
<g>
	<path fill="#58585A" d="M85.069,4.884c0,0,1.537,0,0.448,1.535L51.38,54.504c0,0-1.089,1.533-2.626,1.533h-14.71
		c0,0-1.538,0-0.449-1.533L67.731,6.419c0,0,1.09-1.535,2.628-1.535H85.069z"/>
	<path fill="#0AADCB" d="M35.323,4.884c0,0-1.536,0-0.448,1.535l34.138,48.085c0,0,1.089,1.533,2.626,1.533h14.709
		c0,0,1.537,0,0.448-1.533L52.659,6.419c0,0-1.091-1.535-2.626-1.535H35.323z"/>
	<path fill="#58585A" d="M305,3.963h-2.973v38.965H305V3.963z M277.163,39.404c-1.008-0.932-1.513-2.164-1.513-3.696
		c0-1.632,0.791-3.026,2.373-4.183c1.581-1.158,3.588-1.736,6.021-1.736h6.669v5.169c-0.601,1.716-1.74,3.119-3.422,4.209
		c-1.684,1.092-3.672,1.638-5.971,1.638C279.555,40.805,278.169,40.336,277.163,39.404 M294.384,42.928
		c-0.25-0.884-0.428-1.773-0.535-2.674c-0.109-0.898-0.163-1.822-0.163-2.771v-13.29c0-2.83-0.897-5.004-2.697-6.518
		c-1.8-1.517-4.181-2.273-7.145-2.273c-2.963,0-5.365,0.771-7.206,2.31c-1.84,1.54-2.71,3.327-2.609,5.357l0.05,0.15h2.772
		c0-1.516,0.628-2.772,1.887-3.771c1.257-0.999,2.909-1.499,4.956-1.499c2.232,0,3.959,0.55,5.185,1.648
		c1.224,1.1,1.836,2.614,1.836,4.546v3.347h-6.645c-3.381,0-6.128,0.75-8.243,2.249c-2.115,1.498-3.173,3.455-3.173,5.871
		c0,2.414,0.729,4.324,2.188,5.73c1.457,1.407,3.511,2.109,6.157,2.109c2.18,0,4.112-0.479,5.795-1.436
		c1.682-0.957,2.988-2.168,3.921-3.635c0,0.717,0.046,1.416,0.138,2.1c0.091,0.684,0.229,1.496,0.411,2.447h3.121V42.928z
		 M259.342,8.982V15.9h-4.672v2.449h4.672v17.608c0,2.598,0.526,4.496,1.585,5.695c1.058,1.199,2.535,1.797,4.434,1.797
		c0.584,0,1.17-0.061,1.762-0.188c0.591-0.123,1.088-0.287,1.485-0.486l-0.448-2.223c-0.468,0.1-0.87,0.172-1.212,0.213
		s-0.695,0.062-1.063,0.062c-1.065,0-1.92-0.369-2.562-1.108c-0.64-0.744-0.96-1.994-0.96-3.762V18.35h5.944V15.9h-5.944V8.982
		H259.342z M252.521,15.677c-0.217-0.066-0.49-0.129-0.823-0.188c-0.334-0.059-0.684-0.087-1.049-0.087
		c-1.815,0-3.381,0.466-4.695,1.397c-1.316,0.934-2.365,2.232-3.146,3.897v-0.3L242.43,15.9h-2.622v27.028h2.999V24.27
		c0.516-1.849,1.377-3.302,2.585-4.359c1.206-1.058,2.751-1.585,4.633-1.585l2.123,0.149L252.521,15.677z M212.658,29.015
		c0-3.08,0.789-5.694,2.371-7.843s3.773-3.223,6.569-3.223c2.798,0,4.997,1.074,6.595,3.223c1.599,2.149,2.398,4.763,2.398,7.843
		v0.824c0,3.13-0.795,5.763-2.387,7.894c-1.59,2.131-3.776,3.195-6.558,3.195c-2.83,0-5.037-1.064-6.619-3.195
		s-2.371-4.764-2.371-7.894L212.658,29.015L212.658,29.015z M209.66,29.839c0,3.997,1.092,7.265,3.271,9.804
		c2.182,2.539,5.087,3.809,8.718,3.809c3.6,0,6.481-1.27,8.656-3.809c2.17-2.539,3.258-5.807,3.258-9.804v-0.824
		c0-3.979-1.09-7.244-3.271-9.791c-2.183-2.549-5.08-3.821-8.693-3.821c-3.596,0-6.486,1.272-8.668,3.821
		c-2.18,2.547-3.271,5.812-3.271,9.791V29.839L209.66,29.839z M201.617,30.164c0,3.247-0.679,5.854-2.035,7.816
		c-1.357,1.965-3.344,2.947-5.957,2.947c-1.916,0-3.515-0.42-4.795-1.262c-1.283-0.841-2.274-1.993-2.975-3.459V23.119
		c0.649-1.515,1.604-2.747,2.861-3.695c1.255-0.949,2.875-1.424,4.857-1.424c2.632,0,4.629,1.082,5.994,3.246
		c1.365,2.165,2.048,4.962,2.048,8.394L201.617,30.164L201.617,30.164z M204.615,29.64c0-4.313-0.915-7.765-2.747-10.354
		c-1.831-2.59-4.372-3.884-7.619-3.884c-1.933,0-3.612,0.412-5.045,1.236c-1.434,0.824-2.599,1.985-3.496,3.484l-0.549-4.223h-2.301
		v37.417h2.997V39.331c0.899,1.313,2.063,2.33,3.484,3.046c1.425,0.717,3.076,1.073,4.96,1.073c3.213,0,5.736-1.202,7.567-3.608
		c1.832-2.404,2.746-5.633,2.746-9.678V29.64H204.615z M168.885,37.645c-0.708,0.541-1.735,0.813-3.084,0.813
		c-1.45,0-2.623-0.325-3.522-0.976c-0.898-0.649-1.374-1.698-1.424-3.146h-6.669l-0.05,0.148c-0.101,2.332,0.894,4.408,2.984,6.23
		c2.09,1.824,4.935,2.735,8.527,2.735c3.416,0,6.162-0.772,8.243-2.322c2.083-1.549,3.124-3.538,3.124-5.969
		c0-2.265-0.813-4.043-2.436-5.334c-1.624-1.29-4.093-2.268-7.405-2.934c-2.167-0.417-3.604-0.887-4.311-1.411
		c-0.707-0.525-1.063-1.203-1.063-2.036c0-0.849,0.342-1.564,1.025-2.148c0.684-0.582,1.605-0.874,2.771-0.874
		c1.315,0,2.323,0.342,3.022,1.024c0.698,0.684,1.048,1.565,1.048,2.647h7.044l0.051-0.149c0.083-2.432-0.904-4.463-2.959-6.095
		c-2.058-1.632-4.793-2.447-8.206-2.447c-3.265,0-5.879,0.815-7.844,2.447c-1.964,1.632-2.947,3.605-2.947,5.92
		c0,2.197,0.82,3.938,2.46,5.22c1.642,1.282,4.042,2.24,7.207,2.873c2.098,0.434,3.533,0.937,4.308,1.513
		c0.774,0.573,1.161,1.261,1.161,2.06C169.945,36.366,169.592,37.104,168.885,37.645 M111.075,15.9v27.028h7.268V23.22
		c0.482-0.682,1.095-1.211,1.835-1.587c0.742-0.373,1.603-0.562,2.586-0.562c1.332,0,2.331,0.438,2.997,1.313
		c0.666,0.873,0.999,2.367,0.999,4.482v16.062h7.268v-17.76c0-0.232-0.008-0.462-0.023-0.687c-0.017-0.225-0.025-0.495-0.025-0.813
		c0.45-0.815,1.054-1.452,1.812-1.911c0.758-0.456,1.651-0.687,2.685-0.687c1.315,0,2.306,0.426,2.974,1.274
		c0.665,0.848,0.998,2.356,0.998,4.521v16.063h7.294V26.892c0-3.88-0.771-6.765-2.311-8.655c-1.542-1.89-3.644-2.834-6.308-2.834
		c-1.798,0-3.364,0.407-4.696,1.224c-1.332,0.815-2.413,1.948-3.246,3.396c-0.633-1.547-1.566-2.704-2.798-3.471
		c-1.232-0.766-2.714-1.148-4.447-1.148c-1.715,0-3.226,0.354-4.533,1.062c-1.308,0.707-2.395,1.71-3.26,3.009l-0.299-3.572h-6.768
		V15.9z M90.405,37.244c-0.59-0.54-0.887-1.27-0.887-2.186c0-1.115,0.396-2.058,1.187-2.822c0.792-0.766,1.961-1.148,3.509-1.148
		h4.096v3.821c-0.365,0.833-1.048,1.563-2.047,2.196s-2.132,0.949-3.396,0.949C91.816,38.057,90.996,37.785,90.405,37.244
		 M106.803,42.928c-0.417-1.1-0.722-2.207-0.911-3.322c-0.191-1.117-0.288-2.307-0.288-3.571V24.868
		c0-3.047-1.004-5.387-3.011-7.019c-2.006-1.632-4.633-2.447-7.88-2.447c-3.397,0-6.149,0.828-8.255,2.485
		c-2.106,1.656-3.103,3.625-2.984,5.907l0.05,0.149h7.02c0-0.999,0.32-1.785,0.96-2.36c0.643-0.575,1.553-0.861,2.734-0.861
		c1.35,0,2.365,0.358,3.049,1.073c0.682,0.716,1.022,1.724,1.022,3.023v2.147h-4.096c-3.912,0-6.889,0.729-8.928,2.185
		c-2.042,1.458-3.062,3.51-3.062,6.159c0,2.514,0.767,4.5,2.298,5.957c1.532,1.455,3.713,2.184,6.543,2.184
		c1.7,0,3.165-0.432,4.397-1.299c1.231-0.864,2.223-1.955,2.972-3.271c0.083,0.717,0.221,1.417,0.413,2.1
		c0.19,0.683,0.419,1.332,0.687,1.949H106.803L106.803,42.928z M30.512,22.384c0.649,0.907,0.973,2.151,0.973,3.733v0.55h-8.892
		l-0.05-0.125c0.166-1.665,0.645-3.002,1.437-4.01c0.792-1.007,1.919-1.511,3.386-1.511C28.814,21.021,29.862,21.476,30.512,22.384
		 M33.883,42.553c1.849-0.6,3.313-1.34,4.396-2.225l-1.974-4.496c-1.215,0.686-2.394,1.191-3.534,1.525
		c-1.14,0.332-2.526,0.5-4.159,0.5c-1.98,0-3.476-0.576-4.482-1.726c-1.008-1.147-1.57-2.649-1.686-4.497l0.075-0.148h16.11v-3.771
		c0-3.763-0.97-6.756-2.91-8.979c-1.94-2.223-4.725-3.334-8.354-3.334c-3.848-0.018-6.871,1.265-9.068,3.847
		C16.1,21.829,15,25.143,15,29.189v1c0,3.895,1.133,7.081,3.397,9.553s5.412,3.708,9.44,3.708
		C30.02,43.45,32.035,43.152,33.883,42.553"/>
</g>
</svg>
